# xmcd CD database file
#
# Track frame offsets:
#	150
#	11870
#	23678
#	36867
#	51155
#	64483
#	76991
#	90129
#	104000
#	114475
#	124723
#	138500
#	151207
#	164738
#	175744
#	187668
#	201003
#	214853
#	227395
#	240459
#
# Disc length: 3364 seconds
#
# Revision: 0
# Processed by: cddbd v1.5.2PL0 Copyright (c) Steve Scherf et al.
# Submitted via: CDex 1.50
#
DISCID=030d2214
DTITLE=Various Artist - STARS of The Grand Ole Opry  - CD 3
DYEAR=2000
DGENRE=Country
TTITLE0=Bob Wills and His Texas Playboys - New Spanish Two Step
TTITLE1=Bill Monroe and His Bluegrass Boys - Orange Blossom Special
TTITLE2=Carl Smith - Let Old Mother Nature Have Her Way
TTITLE3=Carter Family - Wildwood Flower
TTITLE4=Cowboy Copas - Breeze
TTITLE5=Ernest Tubb - Filipino Baby 
TTITLE6=Red Foley, Minnie Pearl and Ernest Tubb - The Lovebug Itch
TTITLE7=George Morgan - Almost
TTITLE8=Hank Snow - The Gold Rush Is Over
TTITLE9=Jim and Jesse - A Memory Of You
TTITLE10=Kitty Wells and The Tennessee Mountain Boys - Death At The Bar
TTITLE11=Marty Robbins - I Couldn't Keep From Crying
TTITLE12=Pee Wee King  with Redd Stewart and His Golden West Cowboys - Tennessee Waltz
TTITLE13=Red Foley featuring Hank "Sugarfoot" Garland (Guitar)
TTITLE14=Roy Acuff - Waltz Of The Wind
TTITLE15=Tex Ritter - Jealous Heart
TTITLE16=Uncle Dave Macon - Hold The Woodpile Down
TTITLE17=Webb Pierce - I'll Go On Alone
TTITLE18=Delmore Brothers - Blues Stay Away From Me
TTITLE19=Johnny Bond - The Daughter Of Jole Blon'
EXTD=YEAR: 2000
EXTT0=
EXTT1=
EXTT2=
EXTT3=
EXTT4=
EXTT5=
EXTT6=
EXTT7=
EXTT8=
EXTT9=
EXTT10=
EXTT11=
EXTT12=
EXTT13=
EXTT14=
EXTT15=
EXTT16=
EXTT17=
EXTT18=
EXTT19=
PLAYORDER=
